<svg width="60" height="60" viewBox="0 0 60 60" fill="none" xmlns="http://www.w3.org/2000/svg">
<rect width="60" height="60" rx="11" fill="#1C1C1E"/>
<circle cx="30" cy="30" r="20" fill="#16FF00"/>
<rect x="26" y="41" width="9" height="19" fill="#16FF00"/>
<path d="M20.8762 21.323C21.5178 20.5578 24.0842 19.4555 25.2871 19C25.7327 20.1843 27.4257 22.5528 30.6337 22.5528C33.8416 22.5528 35.1782 20.1843 35.4455 19C36.6931 19.5466 39.3752 20.7764 40.1238 21.323C40.8723 21.8696 43.0198 26.9255 44 29.3851L37.8515 31.7081V41H23.0149V31.7081L17 29.3851C18.0248 27.0166 20.2347 22.0882 20.8762 21.323Z" fill="#1C1C1E"/>
<path d="M37.8515 28.8385V31.7081M37.8515 31.7081V41H23.0149V29.1118V31.7081L17 29.3851C18.0248 27.0166 20.2347 22.0882 20.8762 21.323C21.5178 20.5578 24.0842 19.4555 25.2871 19C25.7327 20.1843 27.4257 22.5528 30.6337 22.5528C33.8416 22.5528 35.1782 20.1843 35.4455 19C36.6931 19.5466 39.3752 20.7764 40.1238 21.323C40.8723 21.8696 43.0198 26.9255 44 29.3851L37.8515 31.7081Z" stroke="#1C1C1E" stroke-width="2.5" stroke-linecap="round" stroke-linejoin="round"/>
</svg>
