<svg width="77" height="32" viewBox="0 0 77 32" fill="none" xmlns="http://www.w3.org/2000/svg">
<rect x="0.5" y="0.5" width="76" height="31" rx="15.5" stroke="currentColor"/>
<path d="M23.488 14.92H21.408V18.344H19.984V10.136H21.408V13.752H23.488V14.92ZM11.776 11.88C12.48 11.24 13.3387 10.92 14.352 10.92C15.3653 10.92 16.2187 11.24 16.912 11.88C17.616 12.5093 17.968 13.3147 17.968 14.296C17.968 15.288 17.6213 16.088 16.928 16.696C16.2453 17.2933 15.3867 17.592 14.352 17.592C13.3387 17.592 12.48 17.2933 11.776 16.696C11.0827 16.088 10.736 15.288 10.736 14.296C10.736 13.3147 11.0827 12.5093 11.776 11.88ZM14.352 12.12C13.712 12.12 13.184 12.328 12.768 12.744C12.352 13.16 12.144 13.672 12.144 14.28C12.144 14.92 12.352 15.4427 12.768 15.848C13.184 16.2427 13.712 16.44 14.352 16.44C15.0027 16.44 15.5307 16.2427 15.936 15.848C16.352 15.4427 16.56 14.9253 16.56 14.296C16.56 13.6667 16.3573 13.1493 15.952 12.744C15.5467 12.328 15.0133 12.12 14.352 12.12ZM21.408 24.136H20V20.216H12.352V19.08H21.408V24.136ZM36.6398 24.12H35.2798V10.136H36.6398V24.12ZM33.8718 23.432H32.5278V16.264H30.3198V15.096H32.5278V10.456H33.8718V23.432ZM31.7918 19.64L30.9278 20.632C30.3838 20.2587 29.8504 19.7147 29.3278 19C28.8051 18.2853 28.4424 17.5653 28.2398 16.84C28.0691 17.608 27.7171 18.376 27.1838 19.144C26.6611 19.912 26.0531 20.5307 25.3598 21L24.4798 20.008C25.3544 19.4427 26.0851 18.6107 26.6718 17.512C27.2584 16.4133 27.5518 15.192 27.5518 13.848V11.464H28.9118V13.832C28.9118 15.1227 29.1784 16.2853 29.7118 17.32C30.2558 18.344 30.9491 19.1173 31.7918 19.64ZM52.0315 16.872H49.8555V24.12H48.4475V10.136H49.8555V15.704H52.0315V16.872ZM47.2955 19.656L46.4475 20.712C45.7648 20.264 45.0875 19.6453 44.4155 18.856C43.7435 18.0667 43.2848 17.2933 43.0395 16.536C42.8048 17.3787 42.3675 18.2107 41.7275 19.032C41.0982 19.8533 40.3835 20.5307 39.5835 21.064L38.7035 20.008C39.7808 19.336 40.6502 18.4293 41.3115 17.288C41.9728 16.1467 42.3035 14.9413 42.3035 13.672V11.336H43.7595V13.608C43.7595 14.8667 44.0902 16.0293 44.7515 17.096C45.4128 18.1627 46.2608 19.016 47.2955 19.656ZM62.1753 19.192L62.3193 20.36C60.6233 20.6373 58.4312 20.792 55.7432 20.824H53.9992V15.32H59.2312V12.552H53.9352V11.4H60.6392V16.456H55.4072V19.624H55.8232C58.5326 19.624 60.6499 19.48 62.1753 19.192ZM63.3912 10.136H64.8153V24.12H63.3912V10.136Z" fill="currentColor"/>
</svg>
