<svg width="49" height="32" viewBox="0 0 49 32" fill="none" xmlns="http://www.w3.org/2000/svg">
<rect x="0.5" y="0.5" width="48" height="31" rx="15.5" stroke="currentColor"/>
<path d="M21.408 10.136V15.864H23.648V17.048H21.408V24.12H20V10.136H21.408ZM17.728 11.624C17.6853 13.8 17.1253 15.7093 16.048 17.352C14.9707 18.9947 13.4507 20.3493 11.488 21.416L10.624 20.344C12.2453 19.5653 13.5467 18.4987 14.528 17.144C15.52 15.7893 16.08 14.3493 16.208 12.824H11.232V11.624H17.728ZM37.7118 14.856H35.6318V18.568H34.2078V10.136H35.6318V13.688H37.7118V14.856ZM34.5758 19.4C35.3864 19.8907 35.7918 20.552 35.7918 21.384C35.7918 22.216 35.3811 22.8773 34.5598 23.368C33.7491 23.8587 32.6078 24.104 31.1358 24.104C29.6744 24.104 28.5384 23.8587 27.7278 23.368C26.9278 22.8773 26.5278 22.216 26.5278 21.384C26.5278 20.552 26.9278 19.8907 27.7278 19.4C28.5384 18.9093 29.6744 18.664 31.1358 18.664C32.6184 18.664 33.7651 18.9093 34.5758 19.4ZM31.1358 19.816C30.1438 19.816 29.3651 19.96 28.7998 20.248C28.2451 20.5253 27.9678 20.904 27.9678 21.384C27.9678 21.864 28.2504 22.248 28.8158 22.536C29.3811 22.8133 30.1544 22.952 31.1358 22.952C32.1491 22.952 32.9384 22.8133 33.5038 22.536C34.0691 22.2587 34.3518 21.8747 34.3518 21.384C34.3518 20.904 34.0691 20.5253 33.5038 20.248C32.9384 19.96 32.1491 19.816 31.1358 19.816ZM31.8718 17.592H25.2798V10.856H26.6878V13.112H30.4478V10.84H31.8718V17.592ZM30.4478 16.44V14.264H26.6878V16.44H30.4478Z" fill="currentColor"/>
</svg>
