<svg width="82" height="32" viewBox="0 0 82 32" fill="none" xmlns="http://www.w3.org/2000/svg">
<rect x="0.5" y="0.5" width="81" height="31" rx="15.5" stroke="currentColor"/>
<path d="M22.416 24.12H21.056V16.904H19.568V23.432H18.208V10.44H19.568V15.752H21.056V10.136H22.416V24.12ZM16.384 13.912L15.888 19.352C16.496 19.3093 17.0293 19.2507 17.488 19.176L17.6 20.296C16.5973 20.456 15.4987 20.5573 14.304 20.6C13.0347 20.6853 11.808 20.7387 10.624 20.76L10.4 19.544H12.08L11.632 13.96L13.04 13.784L13.344 19.496L14.224 19.448C14.4053 19.448 14.544 19.4427 14.64 19.432L14.992 13.784L16.384 13.912ZM17.136 13.032H10.736V11.864H17.136V13.032ZM32.4638 16.248V15.08H34.8798V13.336H32.4638V12.184H34.8798V10.136H36.3038V20.264H34.8798V16.248H32.4638ZM32.9758 17.256L32.1598 18.36C31.4984 18.072 30.8638 17.6293 30.2558 17.032C29.6584 16.424 29.2104 15.7733 28.9118 15.08C28.7091 15.8053 28.2824 16.5253 27.6318 17.24C26.9811 17.9547 26.2878 18.4827 25.5518 18.824L24.6718 17.704C25.6638 17.288 26.4958 16.6267 27.1678 15.72C27.8398 14.8133 28.1758 13.8267 28.1758 12.76V10.936H29.6158V12.696C29.6158 13.7627 29.9518 14.712 30.6238 15.544C31.2958 16.3653 32.0798 16.936 32.9758 17.256ZM36.6078 23.72H27.2478V19.384H28.6558V22.568H36.6078V23.72ZM54.4386 23.928H45.5586V18.424H46.9666V20.056H53.0306V18.408H54.4386V23.928ZM43.7826 12.184V11.048H51.2706V12.184H48.2466V12.504C48.2466 13.432 48.5933 14.2747 49.2866 15.032C49.98 15.7893 50.7586 16.3013 51.6226 16.568L50.8386 17.688C50.188 17.432 49.548 17.0213 48.9186 16.456C48.2893 15.8907 47.8306 15.2987 47.5426 14.68C47.3186 15.3413 46.8813 15.992 46.2306 16.632C45.58 17.272 44.8866 17.7413 44.1506 18.04L43.3026 16.936C44.2626 16.5947 45.084 16.0133 45.7666 15.192C46.46 14.36 46.8066 13.4747 46.8066 12.536V12.184H43.7826ZM56.5186 14.632H54.4386V17.672H53.0146V10.136H54.4386V13.464H56.5186V14.632ZM53.0306 22.792V21.176H46.9666V22.792H53.0306ZM66.5824 21.368C65.5584 21.5067 63.953 21.64 61.7664 21.768C60.3584 21.8427 59.0357 21.88 57.7984 21.88L57.5904 20.696C59.169 20.696 60.4064 20.6747 61.3024 20.632V19.368C60.513 19.2613 59.873 19 59.3824 18.584C58.9024 18.1573 58.6624 17.64 58.6624 17.032C58.6624 16.3173 58.9717 15.7413 59.5904 15.304C60.2197 14.856 61.025 14.632 62.0064 14.632C63.009 14.632 63.8144 14.8507 64.4224 15.288C65.041 15.7253 65.3504 16.3067 65.3504 17.032C65.3504 17.6507 65.1104 18.1733 64.6304 18.6C64.1504 19.016 63.5104 19.272 62.7104 19.368V20.552C64.1717 20.4773 65.4144 20.376 66.4384 20.248L66.5824 21.368ZM70.8864 17.544H68.7264V24.12H67.3344V10.136H68.7264V16.36H70.8864V17.544ZM66.2304 14.056H57.9264V12.888H66.2304V14.056ZM63.8944 17.032C63.8944 16.6693 63.7184 16.3707 63.3664 16.136C63.0144 15.9013 62.561 15.784 62.0064 15.784C61.4624 15.784 61.0144 15.9067 60.6624 16.152C60.3104 16.3867 60.1344 16.68 60.1344 17.032C60.1344 17.3733 60.3104 17.6667 60.6624 17.912C61.0144 18.1573 61.4624 18.28 62.0064 18.28C62.561 18.28 63.0144 18.1573 63.3664 17.912C63.7184 17.6667 63.8944 17.3733 63.8944 17.032ZM63.9744 11.976H59.9904V10.824H63.9744V11.976Z" fill="currentColor"/>
</svg>
