<svg width="63" height="32" viewBox="0 0 63 32" fill="none" xmlns="http://www.w3.org/2000/svg">
<rect x="0.5" y="0.5" width="62" height="31" rx="15.5" stroke="currentColor"/>
<path d="M18.768 13.4C18.768 14.1787 18.4213 14.8027 17.728 15.272C17.0453 15.7413 16.1547 15.976 15.056 15.976C13.968 15.976 13.0773 15.7413 12.384 15.272C11.6907 14.8027 11.344 14.1733 11.344 13.384C11.344 12.6053 11.6907 11.9813 12.384 11.512C13.0773 11.032 13.968 10.792 15.056 10.792C16.144 10.792 17.0347 11.032 17.728 11.512C18.4213 11.9813 18.768 12.6107 18.768 13.4ZM22.176 20.888H20.784V19.4H18.032V18.344H20.784V10.136H22.176V20.888ZM22.448 23.768H12.304V19.688H13.712V22.616H22.448V23.768ZM15.888 20.28H14.464V17.8C13.9307 17.8213 13.1893 17.8427 12.24 17.864C11.3013 17.8853 10.7733 17.896 10.656 17.896L10.432 16.728C12.256 16.728 13.808 16.7013 15.088 16.648C16.848 16.5733 18.3413 16.4667 19.568 16.328L19.664 17.384C18.8533 17.512 17.5947 17.624 15.888 17.72V20.28ZM17.248 13.4C17.248 12.9733 17.0453 12.6213 16.64 12.344C16.2347 12.0667 15.7067 11.928 15.056 11.928C14.4053 11.928 13.8773 12.0667 13.472 12.344C13.0667 12.6213 12.864 12.9733 12.864 13.4C12.864 13.816 13.0613 14.1627 13.456 14.44C13.8613 14.7067 14.3947 14.84 15.056 14.84C15.7173 14.84 16.2453 14.7067 16.64 14.44C17.0453 14.1627 17.248 13.816 17.248 13.4ZM33.6798 19.096L33.7918 20.232C32.6824 20.392 31.2584 20.5147 29.5198 20.6C27.6211 20.696 26.1064 20.744 24.9758 20.744L24.7838 19.544C25.6691 19.544 26.3358 19.5387 26.7838 19.528L26.3198 13.832L27.7278 13.672L28.0958 19.496L29.5358 19.432C29.6318 19.432 29.8078 19.4213 30.0638 19.4L30.4318 13.656L31.8238 13.816L31.3118 19.336C32.3464 19.272 33.1358 19.192 33.6798 19.096ZM36.2718 24.12H34.8638V10.136H36.2718V24.12ZM33.0238 12.68H25.1838V11.528H33.0238V12.68ZM51.2955 17.224L50.5275 18.344C49.4288 18.0347 48.3728 17.4907 47.3595 16.712C46.3568 15.9333 45.6902 15.1547 45.3595 14.376C45.0822 15.1653 44.4368 15.9493 43.4235 16.728C42.4102 17.496 41.3328 18.0293 40.1915 18.328L39.4715 17.176C40.2608 17.0373 41.0448 16.744 41.8235 16.296C42.6022 15.848 43.2635 15.272 43.8075 14.568C44.3622 13.864 44.6395 13.1387 44.6395 12.392V11.304H46.0955V12.392C46.0955 13.128 46.3835 13.8533 46.9595 14.568C47.5355 15.2827 48.2128 15.8693 48.9915 16.328C49.7808 16.776 50.5488 17.0747 51.2955 17.224ZM51.6795 22.232H39.0555V21.08H51.6795V22.232Z" fill="currentColor"/>
</svg>
