<svg width="63" height="32" viewBox="0 0 63 32" fill="none" xmlns="http://www.w3.org/2000/svg">
<rect x="0.5" y="0.5" width="62" height="31" rx="15.5" stroke="currentColor"/>
<path d="M23.648 16.856H21.408V24.12H19.984V10.136H21.408V15.688H23.648V16.856ZM11.712 19.656C11.1147 18.7387 10.816 17.544 10.816 16.072C10.816 14.6 11.1147 13.4107 11.712 12.504C12.3093 11.5867 13.1947 11.128 14.368 11.128C15.5413 11.128 16.4213 11.5867 17.008 12.504C17.6053 13.4107 17.904 14.6053 17.904 16.088C17.904 17.5493 17.6053 18.7387 17.008 19.656C16.4213 20.5627 15.5413 21.016 14.368 21.016C13.1947 21.016 12.3093 20.5627 11.712 19.656ZM16.512 16.088C16.512 14.968 16.3253 14.0667 15.952 13.384C15.5787 12.6907 15.0507 12.344 14.368 12.344C13.6853 12.344 13.1573 12.6853 12.784 13.368C12.4213 14.0507 12.24 14.9573 12.24 16.088C12.24 17.1973 12.4213 18.0933 12.784 18.776C13.1573 19.4587 13.6853 19.8 14.368 19.8C15.0507 19.8 15.5787 19.4587 15.952 18.776C16.3253 18.0933 16.512 17.1973 16.512 16.088ZM36.0958 13.832C36.0958 14.7707 35.6478 15.5333 34.7518 16.12C33.8558 16.696 32.6451 16.984 31.1198 16.984C29.5944 16.984 28.3838 16.696 27.4878 16.12C26.6024 15.5333 26.1598 14.7707 26.1598 13.832C26.1598 12.904 26.6024 12.152 27.4878 11.576C28.3838 11 29.5944 10.712 31.1198 10.712C32.6451 10.712 33.8558 11 34.7518 11.576C35.6478 12.152 36.0958 12.904 36.0958 13.832ZM31.1198 11.912C30.0318 11.912 29.1624 12.0987 28.5118 12.472C27.8718 12.8347 27.5518 13.288 27.5518 13.832C27.5518 14.376 27.8718 14.84 28.5118 15.224C29.1624 15.5973 30.0318 15.784 31.1198 15.784C32.1971 15.784 33.0558 15.5973 33.6958 15.224C34.3464 14.84 34.6718 14.376 34.6718 13.832C34.6718 13.288 34.3464 12.8347 33.6958 12.472C33.0558 12.0987 32.1971 11.912 31.1198 11.912ZM31.8238 24.136H30.3998V19.304H24.8318V18.136H37.4558V19.304H31.8238V24.136ZM40.9115 19.672H41.2635C43.8235 19.672 45.7702 19.5227 47.1035 19.224L47.3115 20.376C45.9035 20.664 43.7755 20.8187 40.9275 20.84H39.5195V11.432H46.1755V12.568H40.9115V15.272H45.5515V16.408H40.9115V19.672ZM50.5115 24.12H49.1035V16.584H46.3835V15.384H49.1035V10.136H50.5115V24.12Z" fill="currentColor"/>
</svg>
