<svg width="49" height="32" viewBox="0 0 49 32" fill="none" xmlns="http://www.w3.org/2000/svg">
<rect x="0.5" y="0.5" width="48" height="31" rx="15.5" stroke="currentColor"/>
<path d="M23.632 16.792H21.408V24.12H20V10.136H21.408V15.608H23.632V16.792ZM17.616 20.648H11.056V11.32H12.448V14.808H16.192V11.304H17.616V20.648ZM16.192 19.512V15.944H12.448V19.512H16.192ZM33.4398 19.736L32.6078 20.792C31.8931 20.376 31.1944 19.7787 30.5118 19C29.8291 18.2107 29.3811 17.4427 29.1678 16.696C28.9651 17.5173 28.5384 18.3387 27.8878 19.16C27.2371 19.9707 26.4958 20.6213 25.6638 21.112L24.7678 20.088C25.8664 19.4373 26.7518 18.5627 27.4238 17.464C28.0958 16.3547 28.4318 15.1387 28.4318 13.816V12.696H25.2638V11.544H33.0238V12.696H29.8878V13.816C29.8878 15.1173 30.2184 16.2907 30.8798 17.336C31.5411 18.3707 32.3944 19.1707 33.4398 19.736ZM34.9438 10.136H36.3678V24.12H34.9438V10.136Z" fill="currentColor"/>
</svg>
