<svg width="49" height="32" viewBox="0 0 49 32" fill="none" xmlns="http://www.w3.org/2000/svg">
<rect x="0.5" y="0.5" width="48" height="31" rx="15.5" stroke="currentColor"/>
<path d="M22.08 20.296H20.656V10.136H22.08V20.296ZM19.072 17.016L18.256 18.12C17.5733 17.832 16.9067 17.384 16.256 16.776C15.616 16.1573 15.152 15.5067 14.864 14.824C14.6507 15.56 14.2133 16.2907 13.552 17.016C12.9013 17.7307 12.208 18.2533 11.472 18.584L10.608 17.48C11.6 17.064 12.432 16.3973 13.104 15.48C13.7867 14.552 14.128 13.5547 14.128 12.488V10.92H15.568V12.424C15.568 13.48 15.92 14.4293 16.624 15.272C17.3387 16.1147 18.1547 16.696 19.072 17.016ZM22.384 23.72H12.96V19.352H14.384V22.568H22.384V23.72ZM37.7118 14.344H35.6318V17.368H34.2078V10.136H35.6318V13.176H37.7118V14.344ZM36.1278 24.024H26.7358V20.456H34.2078V19.272H26.6238V18.12H35.6318V21.528H28.1438V22.872H36.1278V24.024ZM31.8878 16.904H25.2798V10.68H26.6878V12.632H30.4798V10.664H31.8878V16.904ZM30.4798 15.768V13.768H26.6878V15.768H30.4798Z" fill="currentColor"/>
</svg>
