<svg width="49" height="32" viewBox="0 0 49 32" fill="none" xmlns="http://www.w3.org/2000/svg">
<rect x="0.5" y="0.5" width="48" height="31" rx="15.5" stroke="currentColor"/>
<path d="M19.488 20.328L18.688 21.432C17.9307 21.0693 17.184 20.5253 16.448 19.8C15.712 19.064 15.232 18.3547 15.008 17.672C14.8267 18.3973 14.3947 19.1547 13.712 19.944C13.0293 20.7333 12.2987 21.336 11.52 21.752L10.624 20.696C11.68 20.1627 12.5493 19.3947 13.232 18.392C13.9253 17.3893 14.272 16.2533 14.272 14.984V14.76H11.104V13.592H18.896V14.76H15.728V14.968C15.728 17.2933 16.9813 19.08 19.488 20.328ZM22.176 24.12H20.768V10.136H22.176V24.12ZM17.12 12.184H12.944V11.016H17.12V12.184ZM31.8238 20.616H25.2798V11.544H31.8238V20.616ZM30.3998 19.48V12.696H26.6878V19.48H30.3998ZM37.8718 16.856H35.6318V24.12H34.2078V10.136H35.6318V15.688H37.8718V16.856Z" fill="currentColor"/>
</svg>
