<svg width="49" height="32" viewBox="0 0 49 32" fill="none"  xmlns="http://www.w3.org/2000/svg">
<rect x="0.5" y="0.5" width="48" height="31" rx="15.5" stroke="currentColor"  />
<path d="M18.544 16.44L17.712 17.56C17.0507 17.2613 16.4267 16.8347 15.84 16.28C15.264 15.7253 14.832 15.1227 14.544 14.472C14.3413 15.176 13.9307 15.8427 13.312 16.472C12.6933 17.1013 11.984 17.6027 11.184 17.976L10.32 16.856C11.3653 16.4187 12.2027 15.7893 12.832 14.968C13.472 14.136 13.792 13.1867 13.792 12.12V10.792H15.232V12.072C15.232 13.1067 15.5627 14.0187 16.224 14.808C16.8853 15.5973 17.6587 16.1413 18.544 16.44ZM21.6 21.384C21.6 22.2373 21.1787 22.904 20.336 23.384C19.504 23.8747 18.352 24.12 16.88 24.12C15.408 24.12 14.2507 23.8747 13.408 23.384C12.576 22.904 12.16 22.2373 12.16 21.384C12.16 20.5413 12.576 19.8747 13.408 19.384C14.2507 18.8933 15.408 18.648 16.88 18.648C18.352 18.648 19.504 18.8933 20.336 19.384C21.1787 19.8747 21.6 20.5413 21.6 21.384ZM19.264 20.232C18.688 19.9547 17.8933 19.816 16.88 19.816C15.8667 19.816 15.072 19.9547 14.496 20.232C13.92 20.5093 13.632 20.8933 13.632 21.384C13.632 21.8747 13.92 22.264 14.496 22.552C15.072 22.8293 15.8667 22.968 16.88 22.968C17.8933 22.968 18.688 22.8293 19.264 22.552C19.8507 22.264 20.144 21.8747 20.144 21.384C20.144 20.8933 19.8507 20.5093 19.264 20.232ZM23.488 14.968H21.408V18.664H19.984V10.136H21.408V13.8H23.488V14.968ZM35.0078 10.136H36.3998V24.12H35.0078V10.136ZM32.9918 14.552C32.9918 15.5013 32.6398 16.2693 31.9358 16.856C31.2318 17.4427 30.3624 17.736 29.3278 17.736C28.2824 17.736 27.4131 17.4427 26.7198 16.856C26.0264 16.2587 25.6798 15.4907 25.6798 14.552C25.6798 13.592 26.0264 12.8027 26.7198 12.184C27.4238 11.5653 28.2931 11.256 29.3278 11.256C30.3838 11.256 31.2584 11.56 31.9518 12.168C32.6451 12.776 32.9918 13.5707 32.9918 14.552ZM31.5998 14.536C31.5998 13.9067 31.3811 13.4 30.9438 13.016C30.5171 12.632 29.9784 12.44 29.3278 12.44C28.7091 12.44 28.1811 12.6427 27.7438 13.048C27.3064 13.4427 27.0878 13.9387 27.0878 14.536C27.0878 15.1227 27.3011 15.608 27.7278 15.992C28.1651 16.3653 28.6984 16.552 29.3278 16.552C29.9571 16.552 30.4904 16.3653 30.9278 15.992C31.3758 15.6187 31.5998 15.1333 31.5998 14.536ZM34.2558 20.584C33.2531 20.712 31.5464 20.84 29.1358 20.968C27.8771 21.032 26.4851 21.0747 24.9598 21.096L24.7358 19.88C26.4958 19.88 28.0371 19.848 29.3598 19.784C31.3758 19.6987 32.9598 19.592 34.1118 19.464L34.2558 20.584Z"  fill="currentColor" />
</svg>
