<svg width="25" height="24" viewBox="0 0 25 24" fill="none" xmlns="http://www.w3.org/2000/svg">
<path fill-rule="evenodd" clip-rule="evenodd" d="M3.67157 3.17163C2.5 4.3432 2.5 6.22882 2.5 10.0001V14.0001C2.5 17.7713 2.5 19.6569 3.67157 20.8285C4.84315 22.0001 6.72876 22.0001 10.5 22.0001H14.5C18.2712 22.0001 20.1569 22.0001 21.3284 20.8285C22.5 19.6569 22.5 17.7713 22.5 14.0001V14.0001V10.0001C22.5 7.16071 22.5 5.39023 22 4.18862V17.0001C21.0396 17.0001 20.1185 16.6185 19.4393 15.9394L18.6877 15.1877C17.9664 14.4664 17.6057 14.1058 17.1968 13.9538C16.7473 13.7867 16.2527 13.7867 15.8032 13.9538C15.3943 14.1058 15.0336 14.4664 14.3123 15.1877L14.1992 15.3009C13.6138 15.8862 13.3212 16.1789 13.0102 16.2335C12.7685 16.2759 12.5197 16.228 12.311 16.0988C12.0425 15.9327 11.8795 15.5522 11.5534 14.7913L11.5 14.6667C10.7504 12.9176 10.3755 12.043 9.72167 11.7152C9.39249 11.5502 9.02413 11.4792 8.6572 11.5102C7.92836 11.5717 7.25554 12.2445 5.90989 13.5902L4 15.5001V2.88745C3.8844 2.97355 3.77519 3.06801 3.67157 3.17163Z" fill="#F4F4F4"/>
<path d="M3.5 10C3.5 8.08611 3.50212 6.75129 3.63753 5.74416C3.76907 4.76579 4.00966 4.2477 4.37868 3.87868C4.7477 3.50966 5.26579 3.26907 6.24416 3.13753C7.25129 3.00212 8.58611 3 10.5 3H14.5C16.4139 3 17.7487 3.00212 18.7558 3.13753C19.7342 3.26907 20.2523 3.50966 20.6213 3.87868C20.9903 4.2477 21.2309 4.76579 21.3625 5.74416C21.4979 6.75129 21.5 8.08611 21.5 10V14C21.5 15.9139 21.4979 17.2487 21.3625 18.2558C21.2309 19.2342 20.9903 19.7523 20.6213 20.1213C20.2523 20.4903 19.7342 20.7309 18.7558 20.8625C17.7487 20.9979 16.4139 21 14.5 21H10.5C8.58611 21 7.25129 20.9979 6.24416 20.8625C5.26579 20.7309 4.7477 20.4903 4.37868 20.1213C4.00966 19.7523 3.76907 19.2342 3.63753 18.2558C3.50212 17.2487 3.5 15.9139 3.5 14V10Z" stroke="#F4F4F4" stroke-width="2"/>
<circle cx="15.5" cy="9" r="2" fill="#F4F4F4"/>
</svg>
