<svg width="26" height="26" viewBox="0 0 26 26" fill="none" xmlns="http://www.w3.org/2000/svg">
<path d="M11.3927 12.8719L21.6075 24.5C24.0874 24.0234 24.4723 23.2325 24.5001 21.4785L13.1555 11.0865M11.3927 12.8719L13.1555 11.0865M11.3927 12.8719L10.9385 13.332M13.1555 11.0865L13.7766 10.4574M5.66204 8.05552L4.43229 9.30111L3.16675 12.5973L6.33059 15.7103L9.40404 14.8862L10.9385 13.332M5.66204 8.05552L10.9385 13.332M5.66204 8.05552L8.50009 5.18093M8.50009 5.18093L9.40404 4.26534L12.2063 3.16663L15.7317 6.73745L14.9182 9.30111L13.7766 10.4574M8.50009 5.18093L13.7766 10.4574" stroke="#F4F4F4" stroke-width="2" stroke-linejoin="round"/>
<rect x="2.3855" y="11.1666" width="8.00001" height="2.66667" rx="1.33334" transform="rotate(45 2.3855 11.1666)" stroke="#F4F4F4" stroke-width="2"/>
<rect x="13.0522" y="0.5" width="8.00001" height="2.66667" rx="1.33334" transform="rotate(45 13.0522 0.5)" stroke="#F4F4F4" stroke-width="2"/>
</svg>
