<svg width="26" height="26" viewBox="0 0 26 26" fill="none" xmlns="http://www.w3.org/2000/svg">
<path d="M11.8927 13.3719L22.1075 25C24.5874 24.5234 24.9723 23.7325 25.0001 21.9785L13.6555 11.5865M11.8927 13.3719L13.6555 11.5865M11.8927 13.3719L11.4385 13.832M13.6555 11.5865L14.2766 10.9574M6.16204 8.55552L4.93229 9.80111L3.66675 13.0973L6.83059 16.2103L9.90404 15.3862L11.4385 13.832M6.16204 8.55552L11.4385 13.832M6.16204 8.55552L9.00009 5.68093M9.00009 5.68093L9.90404 4.76534L12.7063 3.66663L16.2317 7.23745L15.4182 9.80111L14.2766 10.9574M9.00009 5.68093L14.2766 10.9574" stroke="#16FF00" stroke-width="2" stroke-linejoin="round"/>
<rect x="2.8855" y="11.6666" width="8.00001" height="2.66667" rx="1.33334" transform="rotate(45 2.8855 11.6666)" stroke="#16FF00" stroke-width="2"/>
<rect x="13.5522" y="1" width="8.00001" height="2.66667" rx="1.33334" transform="rotate(45 13.5522 1)" stroke="#16FF00" stroke-width="2"/>
</svg>
