<svg width="17" height="15" viewBox="0 0 17 15" fill="none" xmlns="http://www.w3.org/2000/svg">
<path d="M2.02994 8.51803L7.99986 14.0376C8.15069 14.177 8.2261 14.2468 8.30856 14.2809C8.43113 14.3317 8.56887 14.3317 8.69144 14.2809C8.7739 14.2468 8.84931 14.177 9.00013 14.0376L9.00014 14.0376L14.9701 8.51803C16.6806 6.9365 16.8876 4.30554 15.4454 2.476L15.2153 2.18418C13.5081 0.0185459 10.1234 0.385611 8.92017 2.86688C8.74998 3.21783 8.25002 3.21783 8.07983 2.86688C6.87659 0.385611 3.49188 0.0185449 1.78469 2.18418L1.55465 2.476C0.112401 4.30554 0.319362 6.9365 2.02994 8.51803Z" stroke="#F4F4F4"/>
</svg>
