<svg width="37" height="37" viewBox="0 0 37 37" fill="none" xmlns="http://www.w3.org/2000/svg">
<path d="M24.5 18.5V23" stroke="#CCD2E3" stroke-width="2" stroke-linecap="round"/>
<path d="M12.5 18.5V23" stroke="#CCD2E3" stroke-width="2" stroke-linecap="round"/>
<path d="M14 6.5V11" stroke="#CCD2E3" stroke-width="2" stroke-linecap="round"/>
<rect x="8" y="6.5" width="12" height="12" rx="1.8" stroke="#F4F4F4" stroke-width="2"/>
<path d="M6.5 20.3C6.5 19.3059 7.30589 18.5 8.3 18.5H16.7C17.6941 18.5 18.5 19.3059 18.5 20.3V30.5H8.3C7.30589 30.5 6.5 29.6941 6.5 28.7V20.3Z" stroke="#F4F4F4" stroke-width="2"/>
<path d="M18.5 20.3C18.5 19.3059 19.3059 18.5 20.3 18.5H28.7C29.6941 18.5 30.5 19.3059 30.5 20.3V28.7C30.5 29.6941 29.6941 30.5 28.7 30.5H18.5V20.3Z" stroke="#F4F4F4" stroke-width="2"/>
</svg>
