<svg width="25" height="25" viewBox="0 0 25 25" fill="none" xmlns="http://www.w3.org/2000/svg">
<path d="M19.8259 6.27772C20.5 7.28661 20.5 8.69108 20.5 11.5C20.5 14.3089 20.5 15.7134 19.8259 16.7223C19.534 17.159 19.159 17.534 18.7223 17.8259C17.8409 18.4148 16.6577 18.4892 14.5 18.4986V18.5L13.3944 20.7111C13.0259 21.4482 11.9741 21.4482 11.6056 20.7111L10.5 18.5V18.4986C8.3423 18.4892 7.15907 18.4148 6.27772 17.8259C5.84096 17.534 5.46596 17.159 5.17412 16.7223C4.5 15.7134 4.5 14.3089 4.5 11.5C4.5 8.69108 4.5 7.28661 5.17412 6.27772C5.46596 5.84096 5.84096 5.46596 6.27772 5.17412C7.28661 4.5 8.69108 4.5 11.5 4.5H13.5C16.3089 4.5 17.7134 4.5 18.7223 5.17412C19.159 5.46596 19.534 5.84096 19.8259 6.27772Z" stroke="#F4F4F4" stroke-width="2" stroke-linecap="round" stroke-linejoin="round"/>
<path d="M9.5 9.5L15.5 9.5" stroke="#F4F4F4" stroke-width="2" stroke-linecap="round" stroke-linejoin="round"/>
<path d="M9.5 13.5H12.5" stroke="#F4F4F4" stroke-width="2" stroke-linecap="round" stroke-linejoin="round"/>
</svg>
