<svg width="16" height="16" viewBox="0 0 16 16" fill="none" xmlns="http://www.w3.org/2000/svg">
<path d="M12.8839 3.85182C13.3333 4.52441 13.3333 5.46072 13.3333 7.33334C13.3333 9.20595 13.3333 10.1423 12.8839 10.8149C12.6893 11.106 12.4393 11.356 12.1481 11.5506C11.5606 11.9432 10.7718 11.9928 9.33329 11.9991V12L8.59624 13.4741C8.35056 13.9655 7.64936 13.9655 7.40367 13.4741L6.66663 12V11.9991C5.22816 11.9928 4.43934 11.9432 3.85177 11.5506C3.5606 11.356 3.3106 11.106 3.11604 10.8149C2.66663 10.1423 2.66663 9.20595 2.66663 7.33334C2.66663 5.46072 2.66663 4.52441 3.11604 3.85182C3.3106 3.56064 3.5606 3.31064 3.85177 3.11609C4.52437 2.66667 5.46068 2.66667 7.33329 2.66667H8.66663C10.5392 2.66667 11.4755 2.66667 12.1481 3.11609C12.4393 3.31064 12.6893 3.56064 12.8839 3.85182Z" stroke="#6C6C74" stroke-linecap="round" stroke-linejoin="round"/>
<path d="M6 6L10 6" stroke="#6C6C74" stroke-linecap="round" stroke-linejoin="round"/>
<path d="M6 8.66667H8" stroke="#6C6C74" stroke-linecap="round" stroke-linejoin="round"/>
</svg>
