<svg width="18" height="18" viewBox="0 0 18 18" fill="none" xmlns="http://www.w3.org/2000/svg">
<rect x="1" y="1" width="16" height="16" rx="8" stroke="#F4F4F4" stroke-width="1.5"/>
<path d="M9.00003 8.10667C9.3967 8.10667 9.72003 7.78333 9.72003 7.38667C9.72003 6.99 9.3967 6.66667 9.00003 6.66667C8.60336 6.66667 8.28003 6.99 8.28003 7.38667C8.28003 7.78333 8.60336 8.10667 9.00003 8.10667Z" stroke="#F4F4F4" stroke-linecap="round" stroke-linejoin="round"/>
<path d="M7.26333 11.3333C7.66 11.3333 7.98333 11.01 7.98333 10.6133C7.98333 10.2167 7.66 9.89333 7.26333 9.89333C6.86667 9.89333 6.54333 10.2167 6.54333 10.6133C6.54333 11.01 6.86333 11.3333 7.26333 11.3333Z" stroke="#F4F4F4" stroke-linecap="round" stroke-linejoin="round"/>
<path d="M10.7367 11.3333C11.1334 11.3333 11.4567 11.01 11.4567 10.6133C11.4567 10.2167 11.1334 9.89333 10.7367 9.89333C10.3401 9.89333 10.0167 10.2167 10.0167 10.6133C10.0167 11.01 10.3401 11.3333 10.7367 11.3333Z" stroke="#F4F4F4" stroke-linecap="round" stroke-linejoin="round"/>
</svg>
