<svg width="120" height="188" viewBox="0 0 120 188" fill="none" xmlns="http://www.w3.org/2000/svg">
<circle cx="60" cy="60" r="60" fill="#16FF00"/>
<rect x="48" y="93" width="27" height="95" rx="13.5" fill="#16FF00"/>
<path d="M32.6287 33.9689C34.5535 31.6733 42.2525 28.3665 45.8614 27C47.198 30.5528 52.2772 37.6584 61.901 37.6584C71.5248 37.6584 75.5347 30.5528 76.3366 27C80.0792 28.6398 88.1257 32.3292 90.3713 33.9689C92.6168 35.6087 99.0594 50.7764 102 58.1553L83.5545 65.1242V93H39.0446V65.1242L21 58.1553C24.0743 51.0497 30.704 36.2646 32.6287 33.9689Z" fill="#1C1C1E"/>
<path d="M83.5545 56.5155V65.1242M83.5545 65.1242V93H39.0446V57.3354V65.1242L21 58.1553C24.0743 51.0497 30.704 36.2646 32.6287 33.9689C34.5535 31.6733 42.2525 28.3665 45.8614 27C47.198 30.5528 52.2772 37.6584 61.901 37.6584C71.5248 37.6584 75.5347 30.5528 76.3366 27C80.0792 28.6398 88.1257 32.3292 90.3713 33.9689C92.6168 35.6087 99.0594 50.7764 102 58.1553L83.5545 65.1242Z" stroke="#1C1C1E" stroke-width="2.5" stroke-linecap="round" stroke-linejoin="round"/>
</svg>
