<svg width="24" height="24" viewBox="0 0 24 24" fill="none" xmlns="http://www.w3.org/2000/svg">
<path d="M9.65811 19.7806L9.89528 20.4921V20.4921L9.65811 19.7806ZM14.6581 18.114L14.8953 18.8255H14.8953L14.6581 18.114ZM19.7071 7.29289L20.2374 7.82322L19.7071 7.29289ZM15.2929 11.7071L14.7626 11.1768L15.2929 11.7071ZM5 4.75H19V3.25H5V4.75ZM4.75 6.58579V5H3.25V6.58579H4.75ZM9.23743 11.1768L4.82322 6.76256L3.76256 7.82322L8.17677 12.2374L9.23743 11.1768ZM8.24999 12.4142V19.3063H9.74999V12.4142H8.24999ZM8.24999 19.3063C8.24999 20.1595 9.08586 20.762 9.89528 20.4921L9.42094 19.0691C9.58282 19.0152 9.74999 19.1357 9.74999 19.3063H8.24999ZM9.89528 20.4921L14.8953 18.8255L14.4209 17.4025L9.42094 19.0691L9.89528 20.4921ZM14.8953 18.8255C15.4057 18.6553 15.75 18.1777 15.75 17.6396H14.25C14.25 17.532 14.3189 17.4365 14.4209 17.4025L14.8953 18.8255ZM15.75 17.6396V12.4142H14.25V17.6396H15.75ZM19.1768 6.76256L14.7626 11.1768L15.8232 12.2374L20.2374 7.82322L19.1768 6.76256ZM19.25 5V6.58579H20.75V5H19.25ZM20.2374 7.82322C20.5656 7.49503 20.75 7.04992 20.75 6.58579H19.25C19.25 6.65209 19.2237 6.71568 19.1768 6.76256L20.2374 7.82322ZM15.75 12.4142C15.75 12.3479 15.7763 12.2843 15.8232 12.2374L14.7626 11.1768C14.4344 11.505 14.25 11.9501 14.25 12.4142H15.75ZM8.17677 12.2374C8.22365 12.2843 8.24999 12.3479 8.24999 12.4142H9.74999C9.74999 11.9501 9.56562 11.505 9.23743 11.1768L8.17677 12.2374ZM3.25 6.58579C3.25 7.04992 3.43437 7.49503 3.76256 7.82322L4.82322 6.76256C4.77634 6.71568 4.75 6.65209 4.75 6.58579H3.25ZM19 4.75C19.1381 4.75 19.25 4.86193 19.25 5H20.75C20.75 4.0335 19.9665 3.25 19 3.25V4.75ZM5 3.25C4.0335 3.25 3.25 4.0335 3.25 5H4.75C4.75 4.86193 4.86193 4.75 5 4.75V3.25Z" fill="#F4F4F4"/>
</svg>
