<svg width="22" height="19" viewBox="0 0 22 19" fill="none" xmlns="http://www.w3.org/2000/svg">
<path d="M3.45067 10.4082L10.4033 16.9395C10.6428 17.1644 10.7625 17.2769 10.9037 17.3046C10.9673 17.3171 11.0327 17.3171 11.0963 17.3046C11.2375 17.2769 11.3572 17.1644 11.5967 16.9395L18.5493 10.4082C20.5055 8.57059 20.743 5.5466 19.0978 3.42607L18.7885 3.02734C16.8203 0.49058 12.8696 0.916014 11.4867 3.81365C11.2913 4.22296 10.7087 4.22296 10.5133 3.81365C9.13037 0.916014 5.17972 0.490584 3.21154 3.02735L2.90219 3.42607C1.25695 5.5466 1.4945 8.57059 3.45067 10.4082Z" stroke="#F4F4F4" stroke-width="2"/>
</svg>
