<svg width="14" height="12" viewBox="0 0 14 12" fill="none" xmlns="http://www.w3.org/2000/svg">
<path d="M2.14712 6.84355L6.60485 11.1208L6.60486 11.1209C6.65053 11.1647 6.67336 11.1866 6.6948 11.2031C6.87466 11.3417 7.12534 11.3417 7.3052 11.2031C7.32664 11.1866 7.34948 11.1647 7.39515 11.1208L11.8529 6.84355C13.0766 5.66932 13.226 3.7643 12.2001 2.41375L11.967 2.10691C10.722 0.467879 8.18114 0.738863 7.30983 2.6036C7.18696 2.86655 6.81304 2.86655 6.69017 2.6036C5.81886 0.738863 3.27796 0.467877 2.03297 2.10691L1.7999 2.41374C0.774042 3.7643 0.923362 5.66932 2.14712 6.84355Z" stroke="#6C6C74"/>
</svg>
