<svg width="21" height="22" viewBox="0 0 21 22" fill="none" xmlns="http://www.w3.org/2000/svg">
<path fill-rule="evenodd" clip-rule="evenodd" d="M18.375 11C18.375 15.3492 14.8492 18.875 10.5 18.875C6.15076 18.875 2.625 15.3492 2.625 11C2.625 6.65076 6.15076 3.125 10.5 3.125C14.8492 3.125 18.375 6.65076 18.375 11ZM10.5 16.375C9.94772 16.375 9.5 15.9273 9.5 15.375V12H6.125C5.57272 12 5.125 11.5523 5.125 11C5.125 10.4477 5.57272 10 6.125 10H9.5V6.625C9.5 6.07272 9.94772 5.625 10.5 5.625C11.0523 5.625 11.5 6.07272 11.5 6.625V10H14.875C15.4273 10 15.875 10.4477 15.875 11C15.875 11.5523 15.4273 12 14.875 12H11.5V15.375C11.5 15.9273 11.0523 16.375 10.5 16.375Z" fill="#F4F4F4"/>
</svg>
