<svg width="102" height="56" viewBox="0 0 102 56" fill="none" xmlns="http://www.w3.org/2000/svg">
<rect x="0.177689" y="0.5" width="101.215" height="55" rx="8" fill="#FEE500"/>
<circle cx="51.1777" cy="28.5" r="24" fill="#FEE500"/>
<path d="M51.2471 16.083C43.7802 16.083 37.7585 20.9003 37.7585 26.7486C37.7585 30.5447 40.2635 33.8686 44.021 35.7667L42.7493 40.5166C42.7253 40.5878 42.7216 40.6642 42.7386 40.7374C42.7556 40.8105 42.7927 40.8775 42.8456 40.9308C42.9228 40.9989 43.0221 41.0366 43.125 41.0368C43.2103 41.03 43.2913 40.9963 43.3562 40.9405L48.8288 37.2504C49.6366 37.3619 50.4509 37.4198 51.2663 37.4238C58.7236 37.4238 64.7549 32.6065 64.7549 26.7486C64.7549 20.8907 58.7043 16.083 51.2471 16.083Z" fill="#392020"/>
<path d="M42.4791 25.0626H41.005C40.8222 25.0679 40.6418 25.0211 40.4847 24.9277C40.4149 24.884 40.3549 24.8263 40.3085 24.7583C40.2621 24.6903 40.2302 24.6135 40.2149 24.5326C40.2102 24.4813 40.2102 24.4298 40.2149 24.3785C40.2103 24.2826 40.229 24.1869 40.2692 24.0997C40.3095 24.0125 40.3702 23.9363 40.4461 23.8775C40.6141 23.7559 40.8168 23.6916 41.0242 23.6944H45.4658C45.65 23.6879 45.8317 23.7384 45.9861 23.8389C46.0575 23.8807 46.1187 23.9379 46.1654 24.0062C46.212 24.0745 46.2429 24.1523 46.2559 24.234C46.2606 24.2821 46.2606 24.3305 46.2559 24.3785C46.2604 24.4759 46.2418 24.5729 46.2016 24.6616C46.1614 24.7504 46.1008 24.8283 46.0246 24.8891C45.8608 25.0106 45.66 25.0719 45.4562 25.0626H44.0303V30.1304C44.036 30.2384 44.0193 30.3463 43.9812 30.4475C43.943 30.5487 43.8843 30.6409 43.8086 30.7181C43.7361 30.792 43.6489 30.8499 43.5527 30.8881C43.4565 30.9263 43.3533 30.9438 43.2498 30.9397C43.0689 30.9449 42.8918 30.8871 42.7488 30.776C42.6127 30.6675 42.5204 30.5135 42.4887 30.3424C42.4792 30.272 42.4792 30.2008 42.4887 30.1304L42.4791 25.0626Z" fill="#FEE500"/>
<path d="M46.6812 24.07C46.7235 23.9115 46.8231 23.7742 46.9606 23.6846C47.1071 23.6016 47.274 23.5615 47.4423 23.569H47.8084C47.9869 23.5626 48.1637 23.606 48.3191 23.6943C48.4836 23.8049 48.6006 23.9734 48.6466 24.1664L50.5736 29.61C50.6235 29.752 50.6654 29.8968 50.6988 30.0436C50.7021 30.1046 50.7021 30.1656 50.6988 30.2266C50.7021 30.3205 50.6848 30.414 50.6482 30.5005C50.6116 30.5871 50.5565 30.6646 50.4869 30.7276C50.4194 30.7968 50.3383 30.8514 50.2488 30.8878C50.1593 30.9243 50.0632 30.9419 49.9666 30.9396C49.818 30.9544 49.6687 30.9187 49.5429 30.8383C49.417 30.7579 49.3219 30.6375 49.2729 30.4964L48.8682 29.3114H46.3343L45.9296 30.4964C45.8818 30.6403 45.7855 30.763 45.6573 30.8438C45.529 30.9247 45.3767 30.9585 45.2263 30.9396C45.0634 30.9439 44.9038 30.8929 44.7735 30.795C44.6465 30.6941 44.5608 30.5502 44.5326 30.3905C44.5275 30.336 44.5275 30.2811 44.5326 30.2266C44.5161 30.131 44.5161 30.0333 44.5326 29.9377C44.5326 29.8317 44.6001 29.716 44.6386 29.61L46.6812 24.07ZM47.6446 25.3322L46.7293 28.2226H48.5503L47.6446 25.3322Z" fill="#FEE500"/>
<path d="M50.9195 24.3786C50.9097 24.1623 50.9859 23.9511 51.1314 23.7909C51.2054 23.7162 51.2943 23.6579 51.3922 23.6197C51.4901 23.5816 51.5949 23.5643 51.6999 23.5692C51.8804 23.5671 52.0565 23.6247 52.2009 23.733C52.3347 23.846 52.4236 24.0032 52.4514 24.1762C52.4609 24.2433 52.4609 24.3115 52.4514 24.3786V29.4464H55.1009C55.2846 29.444 55.4651 29.4941 55.6212 29.5909C55.6914 29.6341 55.7516 29.6917 55.7981 29.7597C55.8446 29.8278 55.8762 29.9048 55.891 29.9859C55.891 29.9859 55.891 30.0823 55.891 30.1305C55.8956 30.2264 55.8769 30.322 55.8367 30.4092C55.7964 30.4964 55.7357 30.5727 55.6598 30.6315C55.4918 30.7531 55.289 30.8173 55.0817 30.8145H51.8251C51.6177 30.8278 51.4116 30.7738 51.2374 30.6604C51.0816 30.5439 50.9779 30.3709 50.9484 30.1787C50.9413 30.0728 50.9413 29.9665 50.9484 29.8607L50.9195 24.3786Z" fill="#FEE500"/>
<path d="M56.0646 24.3786C56.0588 24.163 56.1345 23.9532 56.2765 23.7909C56.4209 23.6597 56.6062 23.5822 56.801 23.5717C56.9958 23.5611 57.1883 23.6182 57.346 23.733C57.4827 23.8451 57.575 24.0022 57.6061 24.1762C57.6109 24.2436 57.6109 24.3113 57.6061 24.3786V26.7391L60.0437 23.9257C60.1376 23.8297 60.2374 23.7397 60.3424 23.656C60.4413 23.5971 60.5548 23.567 60.67 23.5692C60.8384 23.5683 61.003 23.6187 61.1421 23.7138C61.2076 23.7579 61.2635 23.8148 61.3066 23.881C61.3496 23.9472 61.3789 24.0214 61.3926 24.0992C61.3965 24.1182 61.3965 24.138 61.3926 24.157C61.3879 24.1793 61.3879 24.2022 61.3926 24.2244C61.3922 24.3258 61.3657 24.4254 61.3155 24.5135C61.2644 24.6068 61.203 24.6939 61.1324 24.7735L59.5331 26.5271L61.46 29.5139V29.6102C61.5601 29.7483 61.6381 29.9011 61.6912 30.0631V30.1112C61.7024 30.2228 61.6863 30.3355 61.6444 30.4396C61.6024 30.5436 61.5358 30.6359 61.4504 30.7086C61.2897 30.83 61.093 30.8945 60.8916 30.8917C60.7577 30.8972 60.6248 30.8672 60.5062 30.8049C60.3779 30.7188 60.2721 30.6032 60.1979 30.4677L58.4058 27.5773L57.5483 28.4734V30.0823C57.5541 30.2979 57.4784 30.5077 57.3364 30.67C57.2602 30.7444 57.1697 30.8025 57.0702 30.8406C56.9708 30.8788 56.8647 30.8961 56.7583 30.8917C56.5805 30.8954 56.4069 30.8375 56.2669 30.7279C56.1308 30.6194 56.0384 30.4655 56.0068 30.2943C55.9973 30.224 55.9973 30.1526 56.0068 30.0823L56.0646 24.3786Z" fill="#FEE500"/>
</svg>
