<svg width="55" height="56" viewBox="0 0 55 56" fill="none" xmlns="http://www.w3.org/2000/svg">
<rect x="0.5" y="0.5" width="54" height="55" rx="3.5" stroke="#444448"/>
<path fill-rule="evenodd" clip-rule="evenodd" d="M18.6716 7.17157C17.5 8.34314 17.5 10.2288 17.5 14V18C17.5 21.7712 17.5 23.6568 18.6716 24.8284C19.8431 26 21.7288 26 25.5 26H29.5C33.2712 26 35.1569 26 36.3284 24.8284C37.5 23.6569 37.5 21.7712 37.5 18V18V14C37.5 11.1607 37.5 9.39017 37 8.18855V21C36.0396 21 35.1185 20.6185 34.4393 19.9393L33.6877 19.1877C32.9664 18.4664 32.6057 18.1057 32.1968 17.9537C31.7473 17.7867 31.2527 17.7867 30.8032 17.9537C30.3943 18.1057 30.0336 18.4664 29.3123 19.1877L29.1992 19.3008C28.6138 19.8862 28.3212 20.1788 28.0102 20.2334C27.7685 20.2758 27.5197 20.2279 27.311 20.0988C27.0425 19.9326 26.8795 19.5522 26.5534 18.7913L26.5 18.6667C25.7504 16.9175 25.3755 16.0429 24.7217 15.7151C24.3925 15.5501 24.0241 15.4792 23.6572 15.5101C22.9284 15.5716 22.2555 16.2445 20.9099 17.5901L19 19.5V6.88739C18.8844 6.97349 18.7752 7.06795 18.6716 7.17157Z" fill="#444448"/>
<path d="M18.5 14C18.5 12.0861 18.5021 10.7513 18.6375 9.74416C18.7691 8.76579 19.0097 8.2477 19.3787 7.87868C19.7477 7.50966 20.2658 7.26907 21.2442 7.13753C22.2513 7.00212 23.5861 7 25.5 7H29.5C31.4139 7 32.7487 7.00212 33.7558 7.13753C34.7342 7.26907 35.2523 7.50966 35.6213 7.87868C35.9903 8.2477 36.2309 8.76579 36.3625 9.74416C36.4979 10.7513 36.5 12.0861 36.5 14V18C36.5 19.9139 36.4979 21.2487 36.3625 22.2558C36.2309 23.2342 35.9903 23.7523 35.6213 24.1213C35.2523 24.4903 34.7342 24.7309 33.7558 24.8625C32.7487 24.9979 31.4139 25 29.5 25H25.5C23.5861 25 22.2513 24.9979 21.2442 24.8625C20.2658 24.7309 19.7477 24.4903 19.3787 24.1213C19.0097 23.7523 18.7691 23.2342 18.6375 22.2558C18.5021 21.2487 18.5 19.9139 18.5 18V14Z" stroke="#444448" stroke-width="2"/>
<circle cx="30.5" cy="13" r="2" fill="#444448"/>
<path d="M18.804 44.64C17.9 44.64 17.172 44.324 16.62 43.692C16.076 43.052 15.804 42.076 15.804 40.764V40.128C15.804 38.792 16.084 37.82 16.644 37.212C17.204 36.596 17.928 36.288 18.816 36.288C19.688 36.288 20.392 36.592 20.928 37.2C21.472 37.8 21.744 38.76 21.744 40.08V40.776C21.744 42.088 21.472 43.06 20.928 43.692C20.392 44.324 19.684 44.64 18.804 44.64ZM18.804 43.776C19.42 43.776 19.88 43.548 20.184 43.092C20.496 42.636 20.652 41.908 20.652 40.908V40.08C20.652 38.128 20.04 37.152 18.816 37.152C17.56 37.152 16.932 38.1 16.932 39.996V40.848C16.932 42.8 17.556 43.776 18.804 43.776ZM23.0338 45.72L25.8178 35.736H26.7418L23.9578 45.72H23.0338ZM29.4013 44.544V37.488L27.9373 37.812V37.2L29.8813 36.3H30.4573V44.544H29.4013ZM35.9635 44.64C35.0595 44.64 34.3315 44.324 33.7795 43.692C33.2355 43.052 32.9635 42.076 32.9635 40.764V40.128C32.9635 38.792 33.2435 37.82 33.8035 37.212C34.3635 36.596 35.0875 36.288 35.9755 36.288C36.8475 36.288 37.5515 36.592 38.0875 37.2C38.6315 37.8 38.9035 38.76 38.9035 40.08V40.776C38.9035 42.088 38.6315 43.06 38.0875 43.692C37.5515 44.324 36.8435 44.64 35.9635 44.64ZM35.9635 43.776C36.5795 43.776 37.0395 43.548 37.3435 43.092C37.6555 42.636 37.8115 41.908 37.8115 40.908V40.08C37.8115 38.128 37.1995 37.152 35.9755 37.152C34.7195 37.152 34.0915 38.1 34.0915 39.996V40.848C34.0915 42.8 34.7155 43.776 35.9635 43.776Z" fill="#F4F4F4"/>
<path d="M18.804 44.64C17.9 44.64 17.172 44.324 16.62 43.692C16.076 43.052 15.804 42.076 15.804 40.764V40.128C15.804 38.792 16.084 37.82 16.644 37.212C17.204 36.596 17.928 36.288 18.816 36.288C19.688 36.288 20.392 36.592 20.928 37.2C21.472 37.8 21.744 38.76 21.744 40.08V40.776C21.744 42.088 21.472 43.06 20.928 43.692C20.392 44.324 19.684 44.64 18.804 44.64ZM18.804 43.776C19.42 43.776 19.88 43.548 20.184 43.092C20.496 42.636 20.652 41.908 20.652 40.908V40.08C20.652 38.128 20.04 37.152 18.816 37.152C17.56 37.152 16.932 38.1 16.932 39.996V40.848C16.932 42.8 17.556 43.776 18.804 43.776ZM23.0338 45.72L25.8178 35.736H26.7418L23.9578 45.72H23.0338ZM29.4013 44.544V37.488L27.9373 37.812V37.2L29.8813 36.3H30.4573V44.544H29.4013ZM35.9635 44.64C35.0595 44.64 34.3315 44.324 33.7795 43.692C33.2355 43.052 32.9635 42.076 32.9635 40.764V40.128C32.9635 38.792 33.2435 37.82 33.8035 37.212C34.3635 36.596 35.0875 36.288 35.9755 36.288C36.8475 36.288 37.5515 36.592 38.0875 37.2C38.6315 37.8 38.9035 38.76 38.9035 40.08V40.776C38.9035 42.088 38.6315 43.06 38.0875 43.692C37.5515 44.324 36.8435 44.64 35.9635 44.64ZM35.9635 43.776C36.5795 43.776 37.0395 43.548 37.3435 43.092C37.6555 42.636 37.8115 41.908 37.8115 40.908V40.08C37.8115 38.128 37.1995 37.152 35.9755 37.152C34.7195 37.152 34.0915 38.1 34.0915 39.996V40.848C34.0915 42.8 34.7155 43.776 35.9635 43.776Z" fill="black" fill-opacity="0.2"/>
</svg>
