<svg width="49" height="24" viewBox="0 0 49 24" fill="none" xmlns="http://www.w3.org/2000/svg">
<rect x="0.5" y="0.5" width="48" height="23" rx="11.5" stroke="white"/>
<path d="M18.016 13.148L17.572 14.036C16.732 13.884 15.94 13.58 15.196 13.124C14.452 12.66 13.948 12.16 13.684 11.624C13.444 12.184 12.956 12.688 12.22 13.136C11.492 13.584 10.688 13.88 9.808 14.024L9.34 13.16C10.22 13.064 11.044 12.772 11.812 12.284C12.588 11.788 13.028 11.224 13.132 10.592H9.868V9.74H17.5V10.592H14.248C14.36 11.216 14.812 11.78 15.604 12.284C16.396 12.788 17.2 13.076 18.016 13.148ZM18.424 16.508H8.956V15.644H13.132V13.364H14.2V15.644H18.424V16.508ZM15.412 8.648H11.956V7.784H15.412V8.648ZM28.3228 17.84H27.2548V7.352H28.3228V17.84ZM25.2508 8.468C25.2188 10.076 24.7708 11.5 23.9068 12.74C23.0508 13.972 21.8748 14.996 20.3788 15.812L19.7308 15.008C20.9708 14.416 21.9828 13.612 22.7668 12.596C23.5588 11.572 24.0028 10.496 24.0988 9.368H20.1988V8.468H25.2508ZM37.0216 15.776C36.2536 15.88 35.0496 15.98 33.4096 16.076C32.3536 16.132 31.3616 16.16 30.4336 16.16L30.2776 15.272C31.4616 15.272 32.3896 15.256 33.0616 15.224V14.276C32.4696 14.196 31.9896 14 31.6216 13.688C31.2616 13.368 31.0816 12.98 31.0816 12.524C31.0816 11.988 31.3136 11.556 31.7776 11.228C32.2496 10.892 32.8536 10.724 33.5896 10.724C34.3416 10.724 34.9456 10.888 35.4016 11.216C35.8656 11.544 36.0976 11.98 36.0976 12.524C36.0976 12.988 35.9176 13.38 35.5576 13.7C35.1976 14.012 34.7176 14.204 34.1176 14.276V15.164C35.2136 15.108 36.1456 15.032 36.9136 14.936L37.0216 15.776ZM40.2496 12.908H38.6296V17.84H37.5856V7.352H38.6296V12.02H40.2496V12.908ZM36.7576 10.292H30.5296V9.416H36.7576V10.292ZM35.0056 12.524C35.0056 12.252 34.8736 12.028 34.6096 11.852C34.3456 11.676 34.0056 11.588 33.5896 11.588C33.1816 11.588 32.8456 11.68 32.5816 11.864C32.3176 12.04 32.1856 12.26 32.1856 12.524C32.1856 12.78 32.3176 13 32.5816 13.184C32.8456 13.368 33.1816 13.46 33.5896 13.46C34.0056 13.46 34.3456 13.368 34.6096 13.184C34.8736 13 35.0056 12.78 35.0056 12.524ZM35.0656 8.732H32.0776V7.868H35.0656V8.732Z" fill="white"/>
</svg>
