<svg width="48" height="24" viewBox="0 0 48 24" fill="none" xmlns="http://www.w3.org/2000/svg">
<rect x="0.5" y="0.5" width="47" height="23" rx="11.5" stroke="#5AC8FA"/>
<path d="M13.448 9.74L13.16 12.74C13.872 12.7 14.4 12.648 14.744 12.584L14.84 13.412C14.096 13.524 13.068 13.612 11.756 13.676C10.3 13.74 9.22 13.772 8.516 13.772L8.372 12.86C9.004 12.86 9.476 12.856 9.788 12.848L9.488 9.752L10.532 9.62L10.736 12.824L11.864 12.788C12.016 12.788 12.132 12.784 12.212 12.776L12.416 9.608L13.448 9.74ZM16.556 7.352V10.448H18.128V11.336H16.556V14.972H15.5V7.352H16.556ZM16.916 17.492H9.92V14.444H10.976V16.64H16.916V17.492ZM14.324 9.128H8.672V8.264H14.324V9.128ZM23.7188 15.068H19.5908V8.48H23.7188V15.068ZM28.0748 17.84H27.0548V12.368H25.9028V17.324H24.8828V7.58H25.9028V11.492H27.0548V7.352H28.0748V17.84ZM22.6988 14.228V9.332H20.5988V14.228H22.6988ZM38.3456 15.92C38.3456 16.52 38.0216 16.984 37.3736 17.312C36.7336 17.648 35.8456 17.816 34.7096 17.816C33.5736 17.816 32.6856 17.648 32.0456 17.312C31.4136 16.984 31.0976 16.52 31.0976 15.92C31.0976 15.368 31.3656 14.932 31.9016 14.612C32.4376 14.292 33.1896 14.108 34.1576 14.06V13.124H29.9816V12.248H39.4496V13.124H35.2256V14.048C36.2096 14.096 36.9736 14.284 37.5176 14.612C38.0696 14.932 38.3456 15.368 38.3456 15.92ZM39.0056 10.82L38.5256 11.66C37.7016 11.548 36.9296 11.292 36.2096 10.892C35.4896 10.492 34.9896 10.048 34.7096 9.56C34.4856 10.056 34.0176 10.504 33.3056 10.904C32.6016 11.296 31.8056 11.548 30.9176 11.66L30.4496 10.832C31.3136 10.76 32.0976 10.536 32.8016 10.16C33.5136 9.776 33.9496 9.296 34.1096 8.72H30.8936V7.856H38.5376V8.72H35.3456C35.5136 9.288 35.9656 9.764 36.7016 10.148C37.4376 10.532 38.2056 10.756 39.0056 10.82ZM36.5696 15.164C36.1136 14.988 35.4936 14.9 34.7096 14.9C33.9256 14.9 33.3096 14.988 32.8616 15.164C32.4136 15.34 32.1896 15.596 32.1896 15.932C32.1896 16.268 32.4136 16.524 32.8616 16.7C33.3096 16.868 33.9256 16.952 34.7096 16.952C35.5016 16.952 36.1216 16.868 36.5696 16.7C37.0256 16.524 37.2536 16.268 37.2536 15.932C37.2536 15.596 37.0256 15.34 36.5696 15.164Z" fill="#5AC8FA"/>
</svg>
