<svg width="49" height="24" viewBox="0 0 49 24" fill="none" xmlns="http://www.w3.org/2000/svg">
<rect x="0.5" y="0.5" width="48" height="23" rx="11.5" fill="#16FF00"/>
<rect x="0.5" y="0.5" width="48" height="23" rx="11.5" stroke="#16FF00"/>
<path d="M13.948 9.74L13.66 12.74C14.372 12.7 14.9 12.648 15.244 12.584L15.34 13.412C14.596 13.524 13.568 13.612 12.256 13.676C10.8 13.74 9.72 13.772 9.016 13.772L8.872 12.86C9.504 12.86 9.976 12.856 10.288 12.848L9.988 9.752L11.032 9.62L11.236 12.824L12.364 12.788C12.516 12.788 12.632 12.784 12.712 12.776L12.916 9.608L13.948 9.74ZM17.056 7.352V10.448H18.628V11.336H17.056V14.972H16V7.352H17.056ZM17.416 17.492H10.42V14.444H11.476V16.64H17.416V17.492ZM14.824 9.128H9.172V8.264H14.824V9.128ZM24.2188 15.068H20.0908V8.48H24.2188V15.068ZM28.5748 17.84H27.5548V12.368H26.4028V17.324H25.3828V7.58H26.4028V11.492H27.5548V7.352H28.5748V17.84ZM23.1988 14.228V9.332H21.0988V14.228H23.1988ZM38.8456 15.92C38.8456 16.52 38.5216 16.984 37.8736 17.312C37.2336 17.648 36.3456 17.816 35.2096 17.816C34.0736 17.816 33.1856 17.648 32.5456 17.312C31.9136 16.984 31.5976 16.52 31.5976 15.92C31.5976 15.368 31.8656 14.932 32.4016 14.612C32.9376 14.292 33.6896 14.108 34.6576 14.06V13.124H30.4816V12.248H39.9496V13.124H35.7256V14.048C36.7096 14.096 37.4736 14.284 38.0176 14.612C38.5696 14.932 38.8456 15.368 38.8456 15.92ZM39.5056 10.82L39.0256 11.66C38.2016 11.548 37.4296 11.292 36.7096 10.892C35.9896 10.492 35.4896 10.048 35.2096 9.56C34.9856 10.056 34.5176 10.504 33.8056 10.904C33.1016 11.296 32.3056 11.548 31.4176 11.66L30.9496 10.832C31.8136 10.76 32.5976 10.536 33.3016 10.16C34.0136 9.776 34.4496 9.296 34.6096 8.72H31.3936V7.856H39.0376V8.72H35.8456C36.0136 9.288 36.4656 9.764 37.2016 10.148C37.9376 10.532 38.7056 10.756 39.5056 10.82ZM37.0696 15.164C36.6136 14.988 35.9936 14.9 35.2096 14.9C34.4256 14.9 33.8096 14.988 33.3616 15.164C32.9136 15.34 32.6896 15.596 32.6896 15.932C32.6896 16.268 32.9136 16.524 33.3616 16.7C33.8096 16.868 34.4256 16.952 35.2096 16.952C36.0016 16.952 36.6216 16.868 37.0696 16.7C37.5256 16.524 37.7536 16.268 37.7536 15.932C37.7536 15.596 37.5256 15.34 37.0696 15.164Z" fill="#1C1C1E"/>
</svg>
