<svg width="50" height="24" viewBox="0 0 50 24" fill="none" xmlns="http://www.w3.org/2000/svg">
<rect x="1" y="0.5" width="48" height="23" rx="11.5" stroke="#16FF00"/>
<path d="M14.448 9.74L14.16 12.74C14.872 12.7 15.4 12.648 15.744 12.584L15.84 13.412C15.096 13.524 14.068 13.612 12.756 13.676C11.3 13.74 10.22 13.772 9.516 13.772L9.372 12.86C10.004 12.86 10.476 12.856 10.788 12.848L10.488 9.752L11.532 9.62L11.736 12.824L12.864 12.788C13.016 12.788 13.132 12.784 13.212 12.776L13.416 9.608L14.448 9.74ZM17.556 7.352V10.448H19.128V11.336H17.556V14.972H16.5V7.352H17.556ZM17.916 17.492H10.92V14.444H11.976V16.64H17.916V17.492ZM15.324 9.128H9.672V8.264H15.324V9.128ZM24.7188 15.068H20.5908V8.48H24.7188V15.068ZM29.0748 17.84H28.0548V12.368H26.9028V17.324H25.8828V7.58H26.9028V11.492H28.0548V7.352H29.0748V17.84ZM23.6988 14.228V9.332H21.5988V14.228H23.6988ZM39.3456 15.92C39.3456 16.52 39.0216 16.984 38.3736 17.312C37.7336 17.648 36.8456 17.816 35.7096 17.816C34.5736 17.816 33.6856 17.648 33.0456 17.312C32.4136 16.984 32.0976 16.52 32.0976 15.92C32.0976 15.368 32.3656 14.932 32.9016 14.612C33.4376 14.292 34.1896 14.108 35.1576 14.06V13.124H30.9816V12.248H40.4496V13.124H36.2256V14.048C37.2096 14.096 37.9736 14.284 38.5176 14.612C39.0696 14.932 39.3456 15.368 39.3456 15.92ZM40.0056 10.82L39.5256 11.66C38.7016 11.548 37.9296 11.292 37.2096 10.892C36.4896 10.492 35.9896 10.048 35.7096 9.56C35.4856 10.056 35.0176 10.504 34.3056 10.904C33.6016 11.296 32.8056 11.548 31.9176 11.66L31.4496 10.832C32.3136 10.76 33.0976 10.536 33.8016 10.16C34.5136 9.776 34.9496 9.296 35.1096 8.72H31.8936V7.856H39.5376V8.72H36.3456C36.5136 9.288 36.9656 9.764 37.7016 10.148C38.4376 10.532 39.2056 10.756 40.0056 10.82ZM37.5696 15.164C37.1136 14.988 36.4936 14.9 35.7096 14.9C34.9256 14.9 34.3096 14.988 33.8616 15.164C33.4136 15.34 33.1896 15.596 33.1896 15.932C33.1896 16.268 33.4136 16.524 33.8616 16.7C34.3096 16.868 34.9256 16.952 35.7096 16.952C36.5016 16.952 37.1216 16.868 37.5696 16.7C38.0256 16.524 38.2536 16.268 38.2536 15.932C38.2536 15.596 38.0256 15.34 37.5696 15.164Z" fill="#16FF00"/>
</svg>
