<svg width="38" height="24" viewBox="0 0 38 24" fill="none" xmlns="http://www.w3.org/2000/svg">
<rect x="0.5" y="0.5" width="37" height="23" rx="11.5" stroke="#FF6F0F"/>
<path d="M16.82 15.92C16.82 16.52 16.496 16.984 15.848 17.312C15.208 17.648 14.32 17.816 13.184 17.816C12.048 17.816 11.16 17.648 10.52 17.312C9.888 16.984 9.572 16.52 9.572 15.92C9.572 15.368 9.84 14.932 10.376 14.612C10.912 14.292 11.664 14.108 12.632 14.06V13.124H8.456V12.248H17.924V13.124H13.7V14.048C14.684 14.096 15.448 14.284 15.992 14.612C16.544 14.932 16.82 15.368 16.82 15.92ZM17.48 10.82L17 11.66C16.176 11.548 15.404 11.292 14.684 10.892C13.964 10.492 13.464 10.048 13.184 9.56C12.96 10.056 12.492 10.504 11.78 10.904C11.076 11.296 10.28 11.548 9.392 11.66L8.924 10.832C9.788 10.76 10.572 10.536 11.276 10.16C11.988 9.776 12.424 9.296 12.584 8.72H9.368V7.856H17.012V8.72H13.82C13.988 9.288 14.44 9.764 15.176 10.148C15.912 10.532 16.68 10.756 17.48 10.82ZM15.044 15.164C14.588 14.988 13.968 14.9 13.184 14.9C12.4 14.9 11.784 14.988 11.336 15.164C10.888 15.34 10.664 15.596 10.664 15.932C10.664 16.268 10.888 16.524 11.336 16.7C11.784 16.868 12.4 16.952 13.184 16.952C13.976 16.952 14.596 16.868 15.044 16.7C15.5 16.524 15.728 16.268 15.728 15.932C15.728 15.596 15.5 15.34 15.044 15.164ZM28.6868 16.316H19.2188V15.44H22.8188V11.912H23.8868V15.44H28.6868V16.316ZM27.4628 8.324V9.932C27.4388 11.636 27.2908 13.064 27.0188 14.216C26.5708 14.136 26.2308 14.08 25.9988 14.048C26.2468 13.072 26.3708 11.872 26.3708 10.448V9.188H20.1908V8.324H27.4628Z" fill="#FF6F0F"/>
</svg>
