<svg width="12" height="12" viewBox="0 0 12 12" fill="none" xmlns="http://www.w3.org/2000/svg">
<path d="M6 6.375C4.415 6.375 3.125 5.085 3.125 3.5C3.125 1.915 4.415 0.625 6 0.625C7.585 0.625 8.875 1.915 8.875 3.5C8.875 5.085 7.585 6.375 6 6.375ZM6 1.375C4.83 1.375 3.875 2.33 3.875 3.5C3.875 4.67 4.83 5.625 6 5.625C7.17 5.625 8.125 4.67 8.125 3.5C8.125 2.33 7.17 1.375 6 1.375Z" fill="#6C6C74"/>
<path d="M1.70471 11.375C1.49971 11.375 1.32971 11.205 1.32971 11C1.32971 8.865 3.42471 7.125 5.99971 7.125C6.50471 7.125 6.99971 7.19001 7.47971 7.32501C7.67971 7.38001 7.79472 7.585 7.73972 7.785C7.68472 7.985 7.47971 8.10001 7.27971 8.04501C6.86971 7.93001 6.43971 7.875 5.99971 7.875C3.83971 7.875 2.07971 9.275 2.07971 11C2.07971 11.205 1.90971 11.375 1.70471 11.375Z" fill="#6C6C74"/>
<path d="M9 11.375C8.41 11.375 7.84999 11.155 7.41499 10.76C7.23999 10.61 7.085 10.425 6.965 10.22C6.745 9.86 6.625 9.435 6.625 9C6.625 8.375 6.865 7.79 7.295 7.345C7.745 6.88 8.35 6.625 9 6.625C9.68 6.625 10.325 6.91501 10.765 7.41501C11.155 7.85001 11.375 8.41 11.375 9C11.375 9.19 11.35 9.38 11.3 9.56C11.25 9.785 11.155 10.02 11.025 10.225C10.61 10.935 9.83 11.375 9 11.375ZM9 7.375C8.555 7.375 8.14501 7.54999 7.83501 7.86499C7.54001 8.16999 7.375 8.57 7.375 9C7.375 9.295 7.455 9.58499 7.61 9.83499C7.69 9.97499 7.79499 10.1 7.91499 10.205C8.21499 10.48 8.6 10.63 9 10.63C9.565 10.63 10.1 10.33 10.39 9.845C10.475 9.705 10.54 9.54501 10.575 9.39001C10.61 9.26001 10.625 9.135 10.625 9.005C10.625 8.605 10.475 8.22001 10.205 7.92001C9.905 7.57001 9.465 7.375 9 7.375Z" fill="#6C6C74"/>
<path d="M9.74963 9.36487H8.25464C8.04964 9.36487 7.87964 9.19487 7.87964 8.98987C7.87964 8.78487 8.04964 8.61487 8.25464 8.61487H9.74963C9.95463 8.61487 10.1246 8.78487 10.1246 8.98987C10.1246 9.19487 9.95463 9.36487 9.74963 9.36487Z" fill="#6C6C74"/>
<path d="M9 10.13C8.795 10.13 8.625 9.96 8.625 9.755V8.26001C8.625 8.05501 8.795 7.88501 9 7.88501C9.205 7.88501 9.375 8.05501 9.375 8.26001V9.755C9.375 9.965 9.205 10.13 9 10.13Z" fill="#6C6C74"/>
</svg>
